<svg xmlns="http://www.w3.org/2000/svg" width="19.842" height="19.842" viewBox="0 0 19.842 19.842"><defs><style>.a{fill:#00a7ff}</style></defs><circle class="a" cx=".775" cy=".775" r=".775" transform="translate(14.184 7.363)"/><path class="a" d="M16.742 1.55h-1.008V.775a.775.775 0 1 0-1.55 0v.775h-3.527V.775a.775.775 0 0 0-1.55 0v.775H5.619V.775a.775.775 0 0 0-1.55 0v.775H3.1A3.1 3.1 0 0 0 0 4.65v12.092a3.1 3.1 0 0 0 3.1 3.1h5.93a.775.775 0 1 0 0-1.55H3.1a1.552 1.552 0 0 1-1.55-1.55V4.65A1.552 1.552 0 0 1 3.1 3.1h.969v.775a.775.775 0 1 0 1.55 0V3.1h3.488v.775a.775.775 0 1 0 1.55 0V3.1h3.527v.775a.775.775 0 1 0 1.55 0V3.1h1.008a1.552 1.552 0 0 1 1.55 1.55v4.418a.775.775 0 1 0 1.55 0V4.65a3.1 3.1 0 0 0-3.1-3.1z"/><path class="a" d="M15.152 10.463a4.689 4.689 0 1 0 4.689 4.689 4.694 4.694 0 0 0-4.689-4.689zm0 7.828a3.139 3.139 0 1 1 3.139-3.139 3.143 3.143 0 0 1-3.139 3.139z"/><path class="a" d="M16.278 14.378h-.349v-.814a.775.775 0 0 0-1.55 0v1.589a.775.775 0 0 0 .775.775h1.124a.775.775 0 0 0 0-1.55z"/><circle class="a" cx=".775" cy=".775" r=".775" transform="translate(10.812 7.363)"/><circle class="a" cx=".775" cy=".775" r=".775" transform="translate(7.441 10.735)"/><circle class="a" cx=".775" cy=".775" r=".775" transform="translate(4.069 7.363)"/><circle class="a" cx=".775" cy=".775" r=".775" transform="translate(4.069 10.735)"/><circle class="a" cx=".775" cy=".775" r=".775" transform="translate(4.069 14.106)"/><circle class="a" cx=".775" cy=".775" r=".775" transform="translate(7.441 14.106)"/><circle class="a" cx=".775" cy=".775" r=".775" transform="translate(7.441 7.363)"/></svg>