<svg xmlns="http://www.w3.org/2000/svg" width="21.723" height="21.723" viewBox="0 0 21.723 21.723"><defs><style>.a{fill:#00a7ff;stroke:#00a7ff;stroke-width:.4px}</style></defs><path class="a" d="M3.2 18.269a11.161 11.161 0 1 0-.136-.149.629.629 0 0 0 .136.149zm7.661 2.031a9.394 9.394 0 0 1-6.093-2.238c2.765-.917 3.787-2.033 4.165-2.777a4.492 4.492 0 0 0 1.767.36h.143a4.514 4.514 0 0 0 1.9-.421c.353.744 1.357 1.9 4.2 2.839a9.348 9.348 0 0 1-6.082 2.237zM7.415 8.89v-.037c.149-3.229 2.529-3.484 3.26-3.484h.2c.725 0 3.112.254 3.26 3.484v.037c.006.031.31 3.019-1.085 4.587a2.866 2.866 0 0 1-2.25.936h-.037a2.878 2.878 0 0 1-2.25-.936C7.111 11.921 7.409 8.921 7.415 8.89zm3.446-7.463a9.43 9.43 0 0 1 7.085 15.657c-4-1.165-4.159-2.579-4.159-2.6v.031h-.043c.074-.074.149-.149.223-.229 1.7-1.915 1.419-5.194 1.388-5.517-.167-3.422-2.517-4.636-4.481-4.636h-.2c-1.965 0-4.32 1.215-4.481 4.636-.031.316-.31 3.6 1.388 5.517.1.112.2.217.31.316-.13.36-.787 1.5-4.116 2.473a9.425 9.425 0 0 1 7.086-15.648z"/></svg>